HIERARCHY
ROOT Hips
{
	OFFSET 0.000000 0.000000 0.000000
	CHANNELS 6 Xposition Yposition Zposition Zrotation Yrotation Xrotation
	JOINT LeftUpLeg
	{
		OFFSET 9.14595 0 0
		CHANNELS 3 Zrotation Yrotation Xrotation
		JOINT LeftLeg
		{
			OFFSET 0 -43.2472 0
			CHANNELS 3 Zrotation Yrotation Xrotation
			JOINT LeftFoot
			{
				OFFSET 0 -39.3015 0
				CHANNELS 3 Zrotation Yrotation Xrotation
				JOINT LeftToe
				{
					OFFSET 0 -6.36299 14.6734
					CHANNELS 3 Zrotation Yrotation Xrotation
					JOINT LToeEnd
					{
						OFFSET 0 0 4.22007
						CHANNELS 3 Zrotation Yrotation Xrotation
						End Site
						{
							OFFSET 0.0 0.0 0.0
						}
					}
				}
			}
		}
	}
	JOINT RightUpLeg
	{
		OFFSET -9.14595 0 0
		CHANNELS 3 Zrotation Yrotation Xrotation
		JOINT RightLeg
		{
			OFFSET 0 -43.2472 0
			CHANNELS 3 Zrotation Yrotation Xrotation
			JOINT RightFoot
			{
				OFFSET 0 -39.3015 0
				CHANNELS 3 Zrotation Yrotation Xrotation
				JOINT RightToe
				{
					OFFSET 0 -6.36299 14.6734
					CHANNELS 3 Zrotation Yrotation Xrotation
					JOINT RToeEnd
					{
						OFFSET 0 0 4.22007
						CHANNELS 3 Zrotation Yrotation Xrotation
						End Site
						{
							OFFSET 0.0 0.0 0.0
						}
					}
				}
			}
		}
	}
	JOINT Spine1
	{
		OFFSET 0 5.32198 0
		CHANNELS 3 Zrotation Yrotation Xrotation
		JOINT Spine2
		{
			OFFSET 0 9.88454 0
			CHANNELS 3 Zrotation Yrotation Xrotation
			JOINT Chest
			{
				OFFSET 0 10.4705 0
				CHANNELS 3 Zrotation Yrotation Xrotation
				JOINT Neck
				{
					OFFSET 0 20.2251 0
					CHANNELS 3 Zrotation Yrotation Xrotation
					JOINT Head
					{
						OFFSET 0 14.0184 1.95005
						CHANNELS 3 Zrotation Yrotation Xrotation
						JOINT HeadEnd
						{
							OFFSET 0 13.1925 0
							CHANNELS 3 Zrotation Yrotation Xrotation
							End Site
							{
								OFFSET 0.0 0.0 0.0
							}
						}
					}
				}
				JOINT LeftShoulder
				{
					OFFSET 4.32209 17.5503 0
					CHANNELS 3 Zrotation Yrotation Xrotation
					JOINT LeftArm
					{
						OFFSET 14.8714 0 0
						CHANNELS 3 Zrotation Yrotation Xrotation
						JOINT LeftForeArm
						{
							OFFSET 23.7007 0 0
							CHANNELS 3 Zrotation Yrotation Xrotation
							JOINT LeftHand
							{
								OFFSET 19.1112 0 0
								CHANNELS 3 Zrotation Yrotation Xrotation
								JOINT LeftHandPalm
								{
									OFFSET 0 0 0
									CHANNELS 3 Zrotation Yrotation Xrotation
									JOINT FZLeftThumb1
									{
										OFFSET -0.59711 -1.83115 3.06628
										CHANNELS 3 Zrotation Yrotation Xrotation
										JOINT FZLeftThumb2
										{
											OFFSET 1.29678 -1.36788 1.83268
											CHANNELS 3 Zrotation Yrotation Xrotation
											JOINT FZLeftThumb3
											{
												OFFSET 1.93031 -2.00253 2.64919
												CHANNELS 3 Zrotation Yrotation Xrotation
												End Site
												{
													OFFSET 0.0 0.0 0.0
												}
											}
										}
									}
									JOINT FZLeftIndex1
									{
										OFFSET 6.11343 -1.1628 2.75002
										CHANNELS 3 Zrotation Yrotation Xrotation
										JOINT FZLeftIndex2
										{
											OFFSET 3.88139 -0.928421 1.01818
											CHANNELS 3 Zrotation Yrotation Xrotation
											JOINT FZLeftIndex3
											{
												OFFSET 1.49382 -0.458603 0.322774
												CHANNELS 3 Zrotation Yrotation Xrotation
												End Site
												{
													OFFSET 0.0 0.0 0.0
												}
											}
										}
									}
									JOINT FZLeftMiddle1
									{
										OFFSET 6.12023 -1.14722 0.290579
										CHANNELS 3 Zrotation Yrotation Xrotation
										JOINT FZLeftMiddle2
										{
											OFFSET 4.24735 -1.08437 0.104351
											CHANNELS 3 Zrotation Yrotation Xrotation
											JOINT FZLeftMiddle3
											{
												OFFSET 2.04489 -0.741196 0.00429702
												CHANNELS 3 Zrotation Yrotation Xrotation
												End Site
												{
													OFFSET 0.0 0.0 0.0
												}
											}
										}
									}
									JOINT FZLeftRing1
									{
										OFFSET 5.77174 -1.28551 -1.90363
										CHANNELS 3 Zrotation Yrotation Xrotation
										JOINT FZLeftRing2
										{
											OFFSET 3.29582 -0.998688 -0.9005
											CHANNELS 3 Zrotation Yrotation Xrotation
											JOINT FZLeftRing3
											{
												OFFSET 2.49246 -0.971542 -0.650992
												CHANNELS 3 Zrotation Yrotation Xrotation
												End Site
												{
													OFFSET 0.0 0.0 0.0
												}
											}
										}
									}
									JOINT FZLeftPinky1
									{
										OFFSET 4.89582 -1.51128 -3.95336
										CHANNELS 3 Zrotation Yrotation Xrotation
										JOINT FZLeftPinky2
										{
											OFFSET 2.15219 -0.837952 -1.2451
											CHANNELS 3 Zrotation Yrotation Xrotation
											JOINT FZLeftPinky3
											{
												OFFSET 1.41002 -0.66391 -0.765082
												CHANNELS 3 Zrotation Yrotation Xrotation
												End Site
												{
													OFFSET 0.0 0.0 0.0
												}
											}
										}
									}
								}
							}
						}
					}
				}
				JOINT RightShoulder
				{
					OFFSET -4.32209 17.5509 0
					CHANNELS 3 Zrotation Yrotation Xrotation
					JOINT RightArm
					{
						OFFSET -14.8714 0 0
						CHANNELS 3 Zrotation Yrotation Xrotation
						JOINT RightForeArm
						{
							OFFSET -23.7008 0 0
							CHANNELS 3 Zrotation Yrotation Xrotation
							JOINT RightHand
							{
								OFFSET -19.1112 0.00035344 0
								CHANNELS 3 Zrotation Yrotation Xrotation
								JOINT RightHandPalm
								{
									OFFSET 0 0 0
									CHANNELS 3 Zrotation Yrotation Xrotation
									JOINT FZRightThumb1
									{
										OFFSET 0.597107 -1.83099 3.06628
										CHANNELS 3 Zrotation Yrotation Xrotation
										JOINT FZRightThumb2
										{
											OFFSET -1.29681 -1.36801 1.83268
											CHANNELS 3 Zrotation Yrotation Xrotation
											JOINT FZRightThumb3
											{
												OFFSET -1.9303 -2.002 2.64919
												CHANNELS 3 Zrotation Yrotation Xrotation
												End Site
												{
													OFFSET 0.0 0.0 0.0
												}
											}
										}
									}
									JOINT FZRightIndex1
									{
										OFFSET -6.1134 -1.162 2.75002
										CHANNELS 3 Zrotation Yrotation Xrotation
										JOINT FZRightIndex2
										{
											OFFSET -3.8814 -0.929001 1.01818
											CHANNELS 3 Zrotation Yrotation Xrotation
											JOINT FZRightIndex3
											{
												OFFSET -1.4938 -0.457993 0.322774
												CHANNELS 3 Zrotation Yrotation Xrotation
												End Site
												{
													OFFSET 0.0 0.0 0.0
												}
											}
										}
									}
									JOINT FZRightMiddle1
									{
										OFFSET -6.12019 -1.147 0.29058
										CHANNELS 3 Zrotation Yrotation Xrotation
										JOINT FZRightMiddle2
										{
											OFFSET -4.24741 -1.084 0.10435
											CHANNELS 3 Zrotation Yrotation Xrotation
											JOINT FZRightMiddle3
											{
												OFFSET -2.0449 -0.740997 0.00430012
												CHANNELS 3 Zrotation Yrotation Xrotation
												End Site
												{
													OFFSET 0.0 0.0 0.0
												}
											}
										}
									}
									JOINT FZRightRing1
									{
										OFFSET -5.7717 -1.285 -1.90363
										CHANNELS 3 Zrotation Yrotation Xrotation
										JOINT FZRightRing2
										{
											OFFSET -3.2959 -0.998993 -0.9005
											CHANNELS 3 Zrotation Yrotation Xrotation
											JOINT FZRightRing3
											{
												OFFSET -2.4924 -0.971008 -0.65099
												CHANNELS 3 Zrotation Yrotation Xrotation
												End Site
												{
													OFFSET 0.0 0.0 0.0
												}
											}
										}
									}
									JOINT FZRightPinky1
									{
										OFFSET -4.8958 -1.511 -3.95337
										CHANNELS 3 Zrotation Yrotation Xrotation
										JOINT FZRightPinky2
										{
											OFFSET -2.1522 -0.837997 -1.24509
											CHANNELS 3 Zrotation Yrotation Xrotation
											JOINT FZRightPinky3
											{
												OFFSET -1.41 -0.664002 -0.76508
												CHANNELS 3 Zrotation Yrotation Xrotation
												End Site
												{
													OFFSET 0.0 0.0 0.0
												}
											}
										}
									}
								}
							}
						}
					}
				}
			}
		}
	}
}
MOTION
Frames: 5
Frame Time: 0.00833333
-729.884277 921.776428 1457.241089 3.652461 -70.777695 -8.061975 7.527886 66.494639 -0.375404 3.386301 14.174886 21.366558 6.231031 -10.151008 -15.797143 -4.056235 1.037301 1.914830 0.000000 0.000014 2.086581 24.282334 75.017640 24.481444 -2.436261 -21.845221 8.076551 -38.821519 40.417429 -32.944048 23.210482 -33.583615 -29.762719 -0.000008 0.000017 30.318927 18.974843 70.299073 23.173730 -1.550159 0.591230 4.051860 0.521695 -3.218241 1.793045 -1.115770 1.884412 -14.143002 2.873222 -2.064328 -9.014156 -2.631109 2.453916 14.529555 0.310129 6.584904 -4.869137 -47.237491 -5.808717 82.176342 88.872525 -7.642475 -51.544402 26.148924 12.934571 65.020305 -70.216159 29.218530 -55.300976 0.000000 0.000000 0.000000 0.000000 0.000000 0.000000 0.000000 0.000000 0.000000 0.000000 0.000000 0.000000 0.000000 0.000000 0.000000 0.000000 0.000000 0.000000 0.000000 0.000000 0.000000 0.000000 0.000000 0.000000 0.000000 0.000000 0.000000 0.000000 0.000000 0.000000 0.000000 0.000000 0.000000 0.000000 0.000000 0.000000 0.000000 0.000000 0.000000 0.000000 0.000000 0.000000 0.000000 0.000000 0.000000 6.889210 3.960423 -0.020955 56.017371 29.760226 6.738723 -33.711353 58.660157 11.124646 -89.388498 -48.171949 50.385509 20.427484 -8.897097 36.334678 0.000000 0.000000 0.000000 0.000000 0.000000 0.000000 0.000000 0.000000 0.000000 0.000000 0.000000 0.000000 0.000000 0.000000 0.000000 0.000000 0.000000 0.000000 0.000000 0.000000 0.000000 0.000000 0.000000 0.000000 0.000000 0.000000 0.000000 0.000000 0.000000 0.000000 0.000000 0.000000 0.000000 0.000000 0.000000 0.000000 0.000000 0.000000 0.000000 0.000000 0.000000 0.000000 0.000000 0.000000 0.000000
-715.200562 924.924988 1459.559448 4.827913 -63.056105 -8.510219 13.211300 63.289969 6.332789 -1.387633 10.412380 21.622597 6.279942 -9.969036 -17.039437 -3.936257 0.332668 1.019796 0.000001 0.000007 2.927522 8.099176 66.867072 10.259284 -0.530348 -24.177304 5.203221 -37.535370 44.235476 -30.499683 22.886644 -31.581032 -31.013130 0.000020 0.000002 30.349138 10.794596 63.061642 16.328222 -1.260270 0.391001 4.528861 0.286840 -3.002978 1.198580 -1.334198 2.035593 -14.694488 2.508657 -2.119439 -8.862034 -1.918862 2.274815 14.843052 0.873639 6.161627 -5.223644 -47.168257 -5.778459 83.723471 87.977668 -5.535130 -50.672425 26.595894 11.898483 64.179262 -71.582687 28.889884 -55.227378 0.000000 0.000000 0.000000 0.000000 0.000000 0.000000 0.000000 0.000000 0.000000 0.000000 0.000000 0.000000 0.000000 0.000000 0.000000 0.000000 0.000000 0.000000 0.000000 0.000000 0.000000 0.000000 0.000000 0.000000 0.000000 0.000000 0.000000 0.000000 0.000000 0.000000 0.000000 0.000000 0.000000 0.000000 0.000000 0.000000 0.000000 0.000000 0.000000 0.000000 0.000000 0.000000 0.000000 0.000000 0.000000 6.308818 4.300308 -0.383199 56.292259 28.480565 7.690641 -35.600389 59.229860 8.266324 -89.806701 -49.137727 50.268504 19.304505 -8.534775 37.117742 0.000000 0.000000 0.000000 0.000000 0.000000 0.000000 0.000000 0.000000 0.000000 0.000000 0.000000 0.000000 0.000000 0.000000 0.000000 0.000000 0.000000 0.000000 0.000000 0.000000 0.000000 0.000000 0.000000 0.000000 0.000000 0.000000 0.000000 0.000000 0.000000 0.000000 0.000000 0.000000 0.000000 0.000000 0.000000 0.000000 0.000000 0.000000 0.000000 0.000000 0.000000 0.000000 0.000000 0.000000 0.000000
-709.266296 924.935547 1462.496338 3.323140 -57.771289 -6.931147 17.483303 56.676010 10.070892 -5.096600 12.846100 20.520215 6.508805 -10.592816 -16.487682 -4.103211 -0.538179 0.410941 0.000003 0.000010 3.069719 5.496911 60.109680 8.054808 -0.178982 -25.229128 3.491490 -37.105529 46.312196 -29.924512 22.545937 -30.409970 -31.135557 0.000001 0.000003 30.252306 8.912291 57.583491 14.013399 -0.732300 0.375382 4.179439 -0.125697 -2.638235 1.889456 -2.395793 1.835606 -14.537570 3.388281 -2.093255 -9.237750 -2.072977 2.117427 14.754002 0.149357 5.272268 -5.772979 -46.388251 -4.931132 83.002349 88.219954 -5.927737 -50.703737 26.669139 11.798879 63.956343 -71.861027 28.914941 -55.229234 0.000000 0.000000 0.000000 0.000000 0.000000 0.000000 0.000000 0.000000 0.000000 0.000000 0.000000 0.000000 0.000000 0.000000 0.000000 0.000000 0.000000 0.000000 0.000000 0.000000 0.000000 0.000000 0.000000 0.000000 0.000000 0.000000 0.000000 0.000000 0.000000 0.000000 0.000000 0.000000 0.000000 0.000000 0.000000 0.000000 0.000000 0.000000 0.000000 0.000000 0.000000 0.000000 0.000000 0.000000 0.000000 5.677214 4.028071 -1.031006 56.431617 29.191136 7.663634 -34.379046 58.379190 9.272013 -88.971352 -49.099734 49.522302 19.142814 -8.745853 37.058844 0.000000 0.000000 0.000000 0.000000 0.000000 0.000000 0.000000 0.000000 0.000000 0.000000 0.000000 0.000000 0.000000 0.000000 0.000000 0.000000 0.000000 0.000000 0.000000 0.000000 0.000000 0.000000 0.000000 0.000000 0.000000 0.000000 0.000000 0.000000 0.000000 0.000000 0.000000 0.000000 0.000000 0.000000 0.000000 0.000000 0.000000 0.000000 0.000000 0.000000 0.000000 0.000000 0.000000 0.000000 0.000000
-703.939941 925.027466 1467.592285 2.469300 -53.118861 -5.836815 18.927963 51.638516 11.062853 -7.608569 13.997224 18.495697 7.145018 -11.288578 -14.826582 -4.806060 -0.811311 -0.503342 -0.000002 -0.000010 3.259345 3.386158 54.618790 6.169787 0.317138 -26.708718 2.634769 -36.837776 47.753398 -29.853855 22.078170 -29.135881 -31.042248 0.000004 0.000002 30.191758 7.208076 52.922623 11.548970 -0.411661 0.352541 3.779594 0.005858 -2.256676 3.159238 -3.218321 1.186356 -14.814767 4.006335 -1.850071 -8.792489 -2.230525 2.113684 14.213436 -1.213488 4.792713 -6.909646 -45.522990 -4.821781 82.818212 87.780586 -6.515411 -50.623599 26.807031 11.518844 64.116178 -72.177503 28.809873 -55.267796 0.000000 0.000000 0.000000 0.000000 0.000000 0.000000 0.000000 0.000000 0.000000 0.000000 0.000000 0.000000 0.000000 0.000000 0.000000 0.000000 0.000000 0.000000 0.000000 0.000000 0.000000 0.000000 0.000000 0.000000 0.000000 0.000000 0.000000 0.000000 0.000000 0.000000 0.000000 0.000000 0.000000 0.000000 0.000000 0.000000 0.000000 0.000000 0.000000 0.000000 0.000000 0.000000 0.000000 0.000000 0.000000 5.131772 3.675815 -1.960346 56.271017 29.644737 7.605433 -33.048447 57.708281 10.295828 -88.059513 -49.227267 48.693334 18.782688 -8.980310 37.050750 0.000000 0.000000 0.000000 0.000000 0.000000 0.000000 0.000000 0.000000 0.000000 0.000000 0.000000 0.000000 0.000000 0.000000 0.000000 0.000000 0.000000 0.000000 0.000000 0.000000 0.000000 0.000000 0.000000 0.000000 0.000000 0.000000 0.000000 0.000000 0.000000 0.000000 0.000000 0.000000 0.000000 0.000000 0.000000 0.000000 0.000000 0.000000 0.000000 0.000000 0.000000 0.000000 0.000000 0.000000 0.000000
-696.770508 924.703918 1475.913208 1.502867 -47.336719 -4.821819 19.703149 46.553837 11.423009 -9.833088 13.522133 15.510786 8.241869 -9.511851 -11.843748 -6.615123 -3.012814 -1.627695 -0.000004 0.000000 3.154431 1.786342 48.553938 4.899889 1.114823 -28.655356 2.210742 -35.144931 47.465795 -28.752598 20.969486 -26.159643 -30.218518 0.000001 0.000017 29.873415 5.792492 46.791301 9.231934 -0.208648 0.178953 3.538907 0.535162 -1.043009 4.129020 -4.263666 0.269304 -14.692321 4.456107 -2.173247 -8.938451 -2.084667 2.555055 14.102295 -2.487961 3.560770 -7.716194 -44.774349 -4.129168 82.736765 87.713912 -6.698838 -50.900875 26.717578 11.725419 64.118072 -71.772586 29.037982 -55.166897 0.000000 0.000000 0.000000 0.000000 0.000000 0.000000 0.000000 0.000000 0.000000 0.000000 0.000000 0.000000 0.000000 0.000000 0.000000 0.000000 0.000000 0.000000 0.000000 0.000000 0.000000 0.000000 0.000000 0.000000 0.000000 0.000000 0.000000 0.000000 0.000000 0.000000 0.000000 0.000000 0.000000 0.000000 0.000000 0.000000 0.000000 0.000000 0.000000 0.000000 0.000000 0.000000 0.000000 0.000000 0.000000 4.856674 2.687036 -2.597396 55.570464 30.273905 7.108179 -30.998341 57.293638 13.649913 -87.384536 -53.245983 46.815256 16.726276 -7.934595 38.686713 0.000000 0.000000 0.000000 0.000000 0.000000 0.000000 0.000000 0.000000 0.000000 0.000000 0.000000 0.000000 0.000000 0.000000 0.000000 0.000000 0.000000 0.000000 0.000000 0.000000 0.000000 0.000000 0.000000 0.000000 0.000000 0.000000 0.000000 0.000000 0.000000 0.000000 0.000000 0.000000 0.000000 0.000000 0.000000 0.000000 0.000000 0.000000 0.000000 0.000000 0.000000 0.000000 0.000000 0.000000 0.000000
